<?xml version="1.0" encoding="iso-8859-1"?>
<svg xmlns="http://www.w3.org/2000/svg" xmlns:xlink="http://www.w3.org/1999/xlink" viewBox="0 0 24 24" width="24px" height="24px">
<g id="Outlined">
<path fill="#ffffff" d="M19.839,10.403C19.944,10.919,20,11.453,20,12c0,4.411-3.589,8-8,8s-8-3.589-8-8s3.589-8,8-8c1.633,0,3.152,0.494,4.42,1.338l1.431-1.431C16.203,2.713,14.185,2,12,2C6.486,2,2,6.486,2,12s4.486,10,10,10s10-4.486,10-10c0-1.126-0.196-2.206-0.541-3.217L19.839,10.403z"/>
<polyline id="Done__x2014__Displayed_on_the_left_side_of_a_contextual_action_bar__x28_CAB_x29__to_allow_the_user_to_dismiss_it._2_" style="fill:none;stroke:#ffffff;stroke-width:2;stroke-miterlimit:10;" points="22,4 11,15 7,11 "/>
</g>
</svg>